<svg width="109" height="44" viewBox="0 0 109 44" fill="none" xmlns="http://www.w3.org/2000/svg">
<g id="startech-logo-plain 2" clip-path="url(#clip0_3109_1145)">
<g id="Group">
<g id="Group_2">
<g id="Group_3">
<path id="Vector" fill-rule="evenodd" clip-rule="evenodd" d="M101.749 28.4895C101.778 28.4982 101.804 28.5073 101.831 28.5178C101.809 28.5091 101.79 28.501 101.77 28.4931L101.749 28.4895ZM101.831 28.5178C105.107 29.8699 106.953 31.3966 106.953 33.0128C106.953 38.5118 85.6013 42.9699 59.2629 42.9699C32.9268 42.9699 11.573 38.5118 11.573 33.0128C11.573 31.3929 13.422 29.8645 16.7063 28.5136L16.7081 28.5124C12.4282 30.0376 9.97461 31.8118 9.97461 33.7075C9.97461 39.3911 32.0421 43.9997 59.2626 43.9997C86.4857 43.9997 108.55 39.3911 108.55 33.7075C108.551 31.8157 106.104 30.0421 101.831 28.5178Z" fill="#EF4A23"/>
</g>
</g>
<g id="Group_4">
<path id="Vector_2" d="M5.68386 13.9102C4.09901 13.9102 2.7765 14.2316 1.71179 14.8735C0.572004 15.5601 0 16.4771 0 17.6232C0 18.7588 0.572004 19.6691 1.71179 20.356C2.7765 21.0007 4.09901 21.3221 5.68386 21.3221H12.8298C13.2954 21.3221 13.7052 21.3785 14.0583 21.4931C14.5238 21.6568 14.7584 21.8935 14.7584 22.2068C14.7584 22.5047 14.5238 22.7438 14.0583 22.916C13.6946 23.0565 13.2873 23.1246 12.8344 23.1246H2.79821L0 26.3242H12.8449C14.5588 26.3242 15.97 25.9614 17.0859 25.2363C18.2833 24.4806 18.874 23.4868 18.874 22.2574C18.874 21.0163 18.2888 20.0074 17.1077 19.2231C15.9652 18.4898 14.5443 18.1225 12.8446 18.1225H5.70527C5.17246 18.1225 4.90742 17.9525 4.90742 17.6157C4.90742 17.2792 5.17246 17.1091 5.70527 17.1091H21.4093V26.3242H25.7444V17.1094H29.9625L32.7939 13.9102H5.68386Z" fill="#EF4A23"/>
</g>
<g id="Group_5">
<g id="Group_6">
<g id="Group_7">
<path id="Vector_3" d="M52.1101 27.5476L51.5879 30.2973H54.7154L53.0778 38.7486H56.2055L57.8501 30.2973H61.1238L61.637 27.5476H52.1101Z" fill="#3749BB"/>
</g>
</g>
<g id="Group_8">
<g id="Group_9">
<path id="Vector_4" d="M70.7502 29.9544L71.2119 27.5476H62.9741L60.8232 38.7486H69.4802L69.9741 36.1967H64.425L64.8511 34.0049H69.7745L70.2265 31.7344H65.2977L65.6351 29.9544H70.7502Z" fill="#3749BB"/>
</g>
</g>
<g id="Group_10">
<g id="Group_11">
<path id="Vector_5" d="M77.5311 35.8861C77.2021 36.2208 76.8005 36.3875 76.3249 36.3875C75.8057 36.3875 75.4128 36.2012 75.1396 35.8282C74.8719 35.4531 74.7371 34.9884 74.7371 34.4333C74.7371 33.7036 74.8682 32.9561 75.1303 32.1866C75.395 31.4186 75.7436 30.8451 76.1793 30.47C76.6165 30.0958 77.064 29.9089 77.522 29.9089C77.8739 29.9089 78.1959 30.0421 78.4908 30.3063C78.7797 30.5713 78.9305 30.976 78.9305 31.5223V31.5833L81.7902 31.2244C81.6741 30.0623 81.2499 29.1282 80.5141 28.4202C79.776 27.7128 78.7761 27.3573 77.5069 27.3573C76.2815 27.3573 75.2331 27.6745 74.3581 28.3065C73.4818 28.9373 72.8166 29.8051 72.3616 30.9108C71.9042 32.0157 71.6777 33.1153 71.6777 34.2129C71.6777 35.6419 72.061 36.7907 72.8308 37.6495C73.5955 38.5121 74.7048 38.9403 76.16 38.9403C77.554 38.9403 78.6841 38.5462 79.5516 37.755C80.4185 36.9689 81.0059 35.9931 81.3087 34.8377L78.394 34.3338C78.145 35.0328 77.8573 35.5496 77.5311 35.8861Z" fill="#3749BB"/>
</g>
</g>
<g id="Group_12">
<g id="Group_13">
<path id="Vector_6" d="M90.6412 27.5476L89.8505 31.5043H86.4809L87.2438 27.5476H84.1166L81.9492 38.7486H85.1047L85.9635 34.1949H89.3382L88.468 38.7486H91.5961L93.7605 27.5476H90.6412Z" fill="#3749BB"/>
</g>
</g>
</g>
<g id="Group_14">
<path id="Vector_7" d="M38.493 18.9786C45.9864 6.40322 59.4042 2.44563 72.5114 3.70271C84.6508 4.6453 97.5008 15.6415 103.586 24.5662C96.3676 11.9532 84.4095 1.34594 68.6235 0.117507C54.096 -1.01052 41.0684 6.06973 32.9813 16.5512C32.9813 16.5512 30.4566 19.5237 32.7371 21.3709C34.8276 23.064 38.5524 19.0126 38.5524 19.0126" fill="#3749BB"/>
</g>
<g id="Group_15">
<path id="Vector_8" d="M67.4543 22.6616C68.5419 22.2837 69.3943 21.7437 70.0107 21.0363C70.6258 20.3298 70.9352 19.541 70.9352 18.6699C70.9352 17.12 70.1693 15.9275 68.6363 15.0886C67.2725 14.3544 65.4919 13.9883 63.2989 13.9883H61.9064V13.972L57.9723 13.9883H54.4318L54.4209 14.0016L50.299 14.0158V14.014H44.9697L47.1697 17.2014L49.0078 17.1996V17.2014H61.9064V17.1855H63.7081C65.5396 17.1855 66.4589 17.6715 66.4589 18.6431C66.4589 19.1409 66.1523 19.5169 65.5396 19.7702C65.0586 19.968 64.4489 20.0666 63.7081 20.0666H51.5898V26.4003H55.9249V23.264H61.9369L66.1969 26.4006H72.539L67.4543 22.6616Z" fill="#EF4A23"/>
</g>
<g id="Group_16">
<path id="Vector_9" d="M50.4848 26.4491L50.2307 26.1294L41.7022 13.887L36.0632 13.8824L35.971 14.0121L27.9029 25.4718L27.0996 26.4491H27.1955L27.156 26.4973H27.1786L27.1723 26.5115L28.1197 26.4973H34.4633L35.8256 22.5138L35.7713 22.5129L35.8332 22.4369L33.96 20.7767L37.3604 20.4006L38.9311 17.7342L40.3869 20.4474L43.7688 20.9371L41.8508 22.5162L41.8653 22.5325L41.7073 22.6642H41.7022V22.6669V22.6706L41.7049 22.6751L43.0615 26.45H50.3694L50.3666 26.4491H50.4848Z" fill="#EF4A23"/>
</g>
<g id="Group_17">
<g id="Group_18">
<path id="Vector_10" d="M44.5007 20.381L40.5582 19.8564L38.796 16.5845L37.0324 19.8564L33.0898 20.381L35.9417 22.9284L35.2702 26.5262L38.796 24.8274L42.3218 26.5262L41.6488 22.9284L44.5007 20.381Z" fill="white"/>
</g>
</g>
<g id="Group_19">
<path id="Vector_11" d="M38.796 16.5845L40.5582 19.8564L44.5007 20.381L41.6488 22.9284L42.3218 26.5262L38.796 24.8274L35.2702 26.5262L35.9417 22.9284L33.0898 20.381L37.0324 19.8564L38.796 16.5845Z" stroke="white" stroke-width="0.7039"/>
</g>
<g id="Group_20">
<g id="Group_21">
<path id="Vector_12" d="M43.9292 20.5001L40.3817 20.0255L38.796 17.0804L37.2093 20.0255L33.6621 20.5001L36.2272 22.7911L35.6221 26.0287L38.796 24.4993L41.9675 26.0287L41.3605 22.7911L43.9292 20.5001Z" fill="#3749BB"/>
</g>
</g>
</g>
</g>
<defs>
<clipPath id="clip0_3109_1145">
<rect width="108.551" height="44" fill="white"/>
</clipPath>
</defs>
</svg>
